<?xml version="1.0" encoding="UTF-8" standalone="no"?>
<svg width="100px" height="146px" viewBox="0 0 100 146" version="1.1" xmlns="http://www.w3.org/2000/svg" xmlns:xlink="http://www.w3.org/1999/xlink">
		<!-- Generator: Sketch 39.1 (31720) - http://www.bohemiancoding.com/sketch -->
		<title>Beard</title>
		<desc>Created with Sketch.</desc>
		<defs></defs>
		<g id="Wireframes" stroke="none" stroke-width="1" fill="none" fill-rule="evenodd">
				<g id="Read-Screen:-Home" transform="translate(-1200.000000, -30.000000)" fill="#58371C">
						<g id="Header">
								<g id="Beard" transform="translate(1200.000000, 30.000000)">
										<path d="M14.2102692,129.191555 C13.3555162,127.052088 13.248672,123.735913 13.996581,121.649932 C14.6910678,119.884872 14.4239575,119.563952 12.9815617,120.312765 C11.3788998,121.222039 10.737835,122.719666 10.3638806,126.624194 L9.9899261,130.047342 L8.12015384,126.998601 C6.5174919,124.324267 6.25038157,123.414993 6.30380364,120.794145 C6.3572257,117.745404 6.3572257,117.691918 4.86140789,117.691918 C3.95323279,117.691918 2.67110324,117.103564 1.65608401,116.194291 L0,114.696663 L2.99163562,113.78739 C4.59429757,113.252523 6.09011538,112.664169 6.19695951,112.396736 C6.3572257,112.182789 5.98327125,110.685162 5.39562854,109.080561 C3.20532388,103.410973 4.22034311,95.8693501 7.63935525,92.2322555 C8.60095242,91.1625218 8.70779655,90.4137082 8.65437448,82.6046522 C8.60095242,77.8978239 6.02120061,69.2791103 8.76121861,54.5776291 C10.6120844,44.6468665 16.2831706,-2.0024501e-10 50,0 C83.7168294,2.00245025e-10 85.6965504,39.1044608 89.0011598,48.1592269 C94.0766503,62.06628 88.4135171,69.714361 89.0011598,82.6581389 C89.3751143,92.0183088 89.5888025,93.8368561 90.81751,97.3669773 C91.618841,99.8273649 92.2599058,103.036566 92.420172,105.764387 C92.6338602,109.936348 92.7407043,110.150295 94.129678,110.738649 C95.9994503,111.540949 98.7239756,114.322257 99.4184624,116.247777 C100.38006,118.761651 100.112949,123.414993 98.8842418,126.303274 C98.243177,127.800901 97.5486902,128.763662 97.3350019,128.549715 C97.1213137,128.335768 96.587093,126.998601 96.0528724,125.607947 C94.9844311,122.719666 93.274925,120.366252 92.2599058,120.366252 C91.7791072,120.366252 91.5119969,121.435986 91.3517307,123.735913 C91.1914645,126.463734 90.81751,127.693928 89.3216922,130.047342 L87.4519199,132.935623 L87.1848096,128.977608 L86.9176993,124.966107 L84.5671284,128.068335 C80.5070515,133.31003 74.8443127,138.230805 69.9829048,140.584219 C64.7475424,143.15158 60.7943096,144.221314 54.0097074,144.970127 C48.4003906,145.558481 47.3319493,145.558481 42.2568532,144.970127 C29.2218694,143.419013 17.4155931,136.786664 14.2102692,129.191555 Z M56.3368488,111.861869 C63.922782,113.733903 66.0062425,113.680416 70.7073842,111.540949 C72.3100461,110.792135 76.4769661,109.882863 80.3767779,107.208527 C87.0291969,104.213273 85.1313416,70.570148 83.4218356,66.7191067 L81.6589074,62.8680653 C81.6589074,62.8680653 78.9343788,72.9770489 78.9343821,68.2167338 C78.9343855,63.4564188 75.9746795,59.177484 74.8208832,59.177484 C73.6670868,59.177484 63.4064514,60.5795717 63.4064514,66.1097269 C63.4064514,71.6398821 57.351868,72.4956687 57.351868,72.4956687 L58.7408417,69.8748211 C62.266698,63.2424721 57.7624331,58.6961039 48.3067276,58.8030772 C42.002924,58.9100506 37.6925482,62.2262251 37.6925482,65.6493729 C37.6925482,67.1470001 38.9746777,69.8213344 40.5773397,71.6398817 L41.699203,72.9770488 C41.699203,72.9770488 36.6301205,70.570148 35.4005367,66.7191067 C34.170953,62.8680654 35.074867,62.7076053 31.2819004,60.3007044 C26.4204925,57.1984767 25.4588954,56.9310432 23.3754348,58.000777 C22.2001494,58.6426172 19.0482475,62.6541185 19.0482476,65.809833 C19.0482477,68.9655475 16.7654059,59.9262976 16.7654059,58.8030772 C16.7119838,57.7333435 14.2402618,60.6216245 13.1718205,63.8843123 C12.3170674,66.3981865 12.2636454,67.5214069 12.9047102,78.3792041 C13.2786646,84.851093 12.0350468,98.0542975 14.7210604,104.213273 C17.4070739,110.372249 25.8224814,112.914941 28.1834207,113.412983 C31.2284784,114.161797 32.1366535,114.001336 37.4788599,112.075816 C44.1031959,109.668915 47.3619419,109.615428 56.3368488,111.861869 Z M42.7071338,38.1240321 C47.2119871,38.1240321 46.8559473,35.9602353 49.4672755,35.992874 C52.0786037,36.0255126 52.0475303,38.1240325 56.6513462,38.1240325 C63.0190038,38.1240325 67.8056869,35.6859128 70.5770533,31.7601839 C67.5611725,27.616318 52.8557661,26.8245971 49.4672744,26.8245971 C46.0787828,26.8245971 30.5381036,27.489845 28.3183327,31.7601839 C30.5381036,35.9928739 39.0054782,38.1240321 42.7071338,38.1240321 Z" id="face" transform="translate(50.000000, 72.705696) scale(1, -1) translate(-50.000000, -72.705696) "></path>
										<g id="eyebrows" transform="translate(19.462025, 49.683544)">
												<path d="M0.320825224,2.40733447 L1.77635684e-15,0.37070271 L3.52907747,2.83609905 C5.50749969,4.17598836 7.32550929,5.24789981 7.59286365,5.24789981 C8.44839758,5.24789981 10.3198781,4.12239279 12.1378877,2.56812119 C14.0093681,0.960254008 19.9446348,-0.486826451 22.0834696,0.15632042 C23.9549501,0.745871718 25.1847801,2.03216546 25.1847801,3.42565035 C25.1847801,4.33677508 24.5966005,4.97992195 23.0459453,5.78385554 C21.923057,6.37340684 20.693227,6.85576699 20.3189309,6.85576699 C19.9981057,6.85576699 17.8592708,7.71329615 15.5600234,8.73161203 C10.1594654,11.1970084 7.860218,11.1970084 4.81237837,8.89239875 C1.92495135,6.6413847 0.74859219,4.97992195 0.320825224,2.40733447 Z" id="Shape" transform="translate(12.592390, 5.300633) scale(1, -1) translate(-12.592390, -5.300633) "></path>
												<path d="M36.2119945,2.40733447 L35.8911692,0.37070271 L39.4202467,2.83609905 C41.3986689,4.17598836 43.2166785,5.24789981 43.4840329,5.24789981 C44.3395668,5.24789981 46.2110473,4.12239279 48.0290569,2.56812119 C49.9005374,0.960254008 55.835804,-0.486826451 57.9746389,0.15632042 C59.8461193,0.745871718 61.0759494,2.03216546 61.0759494,3.42565035 C61.0759494,4.33677508 60.4877698,4.97992195 58.9371145,5.78385554 C57.8142263,6.37340684 56.5843962,6.85576699 56.2101001,6.85576699 C55.8892749,6.85576699 53.7504401,7.71329615 51.4511926,8.73161203 C46.0506347,11.1970084 43.7513872,11.1970084 40.7035476,8.89239875 C37.8161206,6.6413847 36.6397614,4.97992195 36.2119945,2.40733447 Z" id="Shape" transform="translate(48.483559, 5.300633) scale(-1, -1) translate(-48.483559, -5.300633) "></path>
										</g>
										<g id="eyes" transform="translate(25.000000, 65.664557)">
												<path d="M7.26879994,0.0283559025 C11.2595705,-0.269756854 13.6289999,1.85322432 14.1100234,3.08769414 C14.3772587,3.78543795 14.1634705,3.83911055 12.4531646,3.46340234 C8.81876464,2.60464073 4.59644702,2.92667634 2.45856469,4.21481875 C0.374129409,5.44928857 1.42108547e-14,5.61030637 1.42108547e-14,5.12725296 C1.42108547e-14,5.12725296 2.45856463,0.387683126 7.26879994,0.0283559025 Z" id="Shape"></path>
												<path d="M43.2212427,0.0283559025 C47.2120132,-0.269756854 49.5814426,1.85322432 50.0624662,3.08769414 C50.3297015,3.78543795 50.1159132,3.83911055 48.4056073,3.46340234 C44.7712074,2.60464073 40.5488898,2.92667634 38.4110074,4.21481875 C36.3265721,5.44928857 35.9524427,5.61030637 35.9524427,5.12725296 C35.9524427,5.12725296 38.4110074,0.387683126 43.2212427,0.0283559025 Z" id="Shape" transform="translate(43.055335, 2.689873) scale(-1, 1) translate(-43.055335, -2.689873) "></path>
										</g>
								</g>
						</g>
				</g>
		</g>
</svg>